<?xml version="1.0" encoding="UTF-8" standalone="no"?>
<!-- Generated by IcoMoon.io -->

<svg
   xmlns:dc="http://purl.org/dc/elements/1.1/"
   xmlns:cc="http://creativecommons.org/ns#"
   xmlns:rdf="http://www.w3.org/1999/02/22-rdf-syntax-ns#"
   xmlns:svg="http://www.w3.org/2000/svg"
   xmlns="http://www.w3.org/2000/svg"
   xmlns:sodipodi="http://sodipodi.sourceforge.net/DTD/sodipodi-0.dtd"
   xmlns:inkscape="http://www.inkscape.org/namespaces/inkscape"
   version="1.1"
   width="1024"
   height="1024"
   viewBox="0 0 1024 1024"
   id="svg2"
   inkscape:version="0.48.4 r9939"
   sodipodi:docname="logo.svg">
  <metadata
     id="metadata11">
    <rdf:RDF>
      <cc:Work
         rdf:about="">
        <dc:format>image/svg+xml</dc:format>
        <dc:type
           rdf:resource="http://purl.org/dc/dcmitype/StillImage" />
        <dc:title></dc:title>
      </cc:Work>
    </rdf:RDF>
  </metadata>
  <defs
     id="defs9" />
  <sodipodi:namedview
     pagecolor="#ffffff"
     bordercolor="#666666"
     borderopacity="1"
     objecttolerance="10"
     gridtolerance="10"
     guidetolerance="10"
     inkscape:pageopacity="0"
     inkscape:pageshadow="2"
     inkscape:window-width="1366"
     inkscape:window-height="705"
     id="namedview7"
     showgrid="false"
     inkscape:zoom="0.65186406"
     inkscape:cx="604.26065"
     inkscape:cy="746.33506"
     inkscape:window-x="-8"
     inkscape:window-y="143"
     inkscape:window-maximized="1"
     inkscape:current-layer="svg2" />
  <g
     id="icomoon-ignore" />
  <path
     d="M 1024.0954,160.23702 544,160 l -422.29911,0.038 -121.80448333,-0.0379 0.13559319,322.44067 -0.26359319,34.08054 c 0,0 0.26359333,382.69126 0.26359333,379.68597 l 208,-0.27119 0,0.064 575.968,-0.064 240.5038,0.0465 z M 784,831.936 784,832 208.032,832 c -79.392,-0.064 -144,-64.64 -144,-144.064 0,-51.2 26.976,-97.44 72.128,-123.744 43.872,-25.184 46.88,-30.176 28.48,-75.424 -3.104,-9.312 -4.608,-17.408 -4.608,-24.736 0,-44.128 35.872,-80 80,-80 0,0 20.992,-1.504 43.296,7.36 36.704,14.624 40.704,0.64 58.048,-37.088 C 378.08,275.168 457.6,224 544,224 c 115.2,0 210.432,87.136 221.568,202.688 3.936,45.824 3.936,45.824 51.68,56.736 C 900,499.232 960,571.808 960,655.936 c 0,97.056 -78.944,176 -176,176 z"
     id="path5"
     style="fill:#1f7aff;fill-opacity:1;stroke:none"
     inkscape:connector-curvature="0"
     sodipodi:nodetypes="cccccccccccccccsccscccsccsc" />
  <g
     id="g3767"
     transform="matrix(0.55932203,0,0,0.55932203,171.38982,238.64407)"
     style="fill:#cccccc;fill-opacity:0.36250001">
    <g
       id="icomoon-ignore-1"
       style="fill:#cccccc;fill-opacity:0.36250001" />
    <path
       id="path3759"
       d="m 363.722,722.052 41.298,-57.816 -45.254,-45.256 -57.818,41.296 c -10.722,-5.994 -22.204,-10.774 -34.266,-14.192 L 256,576 h -64 l -11.68,70.086 c -12.062,3.418 -23.544,8.198 -34.266,14.192 L 88.236,618.98 42.98,664.236 84.278,722.052 c -5.994,10.72 -10.774,22.206 -14.192,34.266 L 0,768 v 64 l 70.086,11.682 c 3.418,12.06 8.198,23.544 14.192,34.266 l -41.298,57.816 45.254,45.256 57.818,-41.296 c 10.722,5.994 22.204,10.774 34.266,14.192 L 192,1024 h 64 l 11.68,-70.086 c 12.062,-3.418 23.544,-8.198 34.266,-14.192 l 57.818,41.296 45.254,-45.256 -41.298,-57.816 c 5.994,-10.72 10.774,-22.206 14.192,-34.266 L 448,832 v -64 l -70.086,-11.682 c -3.418,-12.06 -8.198,-23.544 -14.192,-34.266 z M 224,864 c -35.348,0 -64,-28.654 -64,-64 0,-35.346 28.652,-64 64,-64 35.348,0 64,28.654 64,64 0,35.346 -28.652,64 -64,64 z m 800,-480 v -64 l -67.382,-12.25 c -1.242,-8.046 -2.832,-15.978 -4.724,-23.79 l 57.558,-37.1 -24.492,-59.128 -66.944,14.468 c -4.214,-6.91 -8.726,-13.62 -13.492,-20.13 L 943.53,125.728 898.274,80.474 841.932,119.48 c -6.512,-4.766 -13.22,-9.276 -20.13,-13.494 l 14.468,-66.944 -59.128,-24.494 -37.1,57.558 c -7.812,-1.892 -15.744,-3.482 -23.79,-4.724 L 704,0 h -64 l -12.252,67.382 c -8.046,1.242 -15.976,2.832 -23.79,4.724 L 566.86,14.548 507.732,39.04 522.2,105.984 c -6.91,4.216 -13.62,8.728 -20.13,13.494 l -56.342,-39.006 -45.254,45.254 39.006,56.342 c -4.766,6.51 -9.278,13.22 -13.494,20.13 l -66.944,-14.468 -24.492,59.128 57.558,37.1 c -1.892,7.812 -3.482,15.742 -4.724,23.79 L 320,320 v 64 l 67.382,12.25 c 1.242,8.046 2.832,15.978 4.724,23.79 l -57.558,37.1 24.492,59.128 66.944,-14.468 c 4.216,6.91 8.728,13.618 13.494,20.13 l -39.006,56.342 45.254,45.256 56.342,-39.006 c 6.51,4.766 13.22,9.276 20.13,13.492 l -14.468,66.944 59.128,24.492 37.102,-57.558 c 7.81,1.892 15.742,3.482 23.788,4.724 L 640,704 h 64 l 12.252,-67.382 c 8.044,-1.242 15.976,-2.832 23.79,-4.724 l 37.1,57.558 59.128,-24.492 -14.468,-66.944 c 6.91,-4.216 13.62,-8.726 20.13,-13.492 l 56.342,39.006 45.256,-45.256 -39.006,-56.342 c 4.766,-6.512 9.276,-13.22 13.492,-20.13 l 66.944,14.468 24.492,-59.13 -57.558,-37.1 c 1.892,-7.812 3.482,-15.742 4.724,-23.79 L 1024,384 z M 672,491.2 c -76.878,0 -139.2,-62.322 -139.2,-139.2 0,-76.878 62.32,-139.2 139.2,-139.2 76.88,0 139.2,62.322 139.2,139.2 0,76.878 -62.32,139.2 -139.2,139.2 z"
       inkscape:connector-curvature="0"
       style="fill:#cccccc;fill-opacity:0.36250001" />
  </g>
</svg>
